<?xml version="1.0" encoding="UTF-8"?>
<svg version="1.1" xmlns="http://www.w3.org/2000/svg" width="200" height="200">
<path d="M0 0 C0.71027344 0.36222656 1.42054687 0.72445313 2.15234375 1.09765625 C13.00003434 7.23982271 19.20132348 16.52694265 23.06445312 28.22265625 C24.03303594 32.13338518 24.22868417 35.44355738 24.1953125 39.46484375 C24.1924826 40.14301651 24.18965271 40.82118927 24.18673706 41.51991272 C24.17565416 43.65929766 24.1505736 45.7982443 24.125 47.9375 C24.11495476 49.39908244 24.10583163 50.86067153 24.09765625 52.32226562 C24.07575425 55.88164979 24.04130866 59.44078203 24 63 C24.67256836 62.98622314 25.34513672 62.97244629 26.03808594 62.95825195 C26.92786133 62.94753662 27.81763672 62.93682129 28.734375 62.92578125 C29.61319336 62.91200439 30.49201172 62.89822754 31.39746094 62.8840332 C38.13707049 63.18434414 43.32859208 66.22242371 48 71 C51.92241929 77.2909089 53.12107437 82.61555334 53.16113281 90.01245117 C53.16609772 90.71058929 53.17106262 91.40872742 53.17617798 92.12802124 C53.19075683 94.43301388 53.19759568 96.73793761 53.203125 99.04296875 C53.20888151 100.65236919 53.21463918 102.26176962 53.22039795 103.87117004 C53.23089686 107.24622923 53.23674627 110.62126468 53.24023438 113.99633789 C53.24570608 118.3023685 53.26971026 122.60808084 53.29820633 126.91401196 C53.31691641 130.2402078 53.32204282 133.5663284 53.32357025 136.8925724 C53.32658023 138.47886195 53.3345523 140.06515071 53.34775543 141.65138817 C53.43637599 153.12025097 53.12207499 162.54674848 44.8359375 171.33984375 C40.09169034 175.62985448 34.76029594 177.11643905 28.51741028 177.14044189 C27.62460358 177.14615204 26.73179687 177.15186218 25.81193542 177.15774536 C24.35392265 177.15942215 24.35392265 177.15942215 22.86645508 177.16113281 C21.3218158 177.16858017 21.3218158 177.16858017 19.74597168 177.17617798 C16.33715141 177.19078954 12.9283777 177.19760059 9.51953125 177.203125 C7.1478424 177.20887805 4.77615355 177.21463577 2.40446472 177.22039795 C-2.57126075 177.23090561 -7.54697007 177.23674957 -12.52270508 177.24023438 C-18.88685178 177.24571319 -25.2507839 177.26972933 -31.6148634 177.29820633 C-36.51604324 177.31686661 -41.4171718 177.32204016 -46.31838417 177.32357025 C-48.66384362 177.32659053 -51.0093023 177.33459787 -53.35472679 177.34775543 C-56.64314266 177.36488355 -59.93103957 177.36291875 -63.21948242 177.35644531 C-64.18136978 177.3656601 -65.14325714 177.37487488 -66.1342926 177.3843689 C-75.44177154 177.32721327 -82.50992835 175.27208044 -89.33984375 168.8359375 C-94.47140601 163.16103335 -95.12195643 157.23170282 -95.16113281 149.89575195 C-95.16858017 148.83391441 -95.16858017 148.83391441 -95.17617798 147.75062561 C-95.19075823 145.4131675 -95.19759589 143.07577733 -95.203125 140.73828125 C-95.20888137 139.10646057 -95.21463903 137.47463989 -95.22039795 135.84281921 C-95.23089723 132.42068162 -95.23674641 128.99856744 -95.24023438 125.57641602 C-95.24570639 121.20985319 -95.26971108 116.84360418 -95.29820633 112.47713947 C-95.31691427 109.1046206 -95.3220427 105.73217596 -95.32357025 102.3596096 C-95.32658067 100.7509916 -95.33455426 99.1423744 -95.34775543 97.53380775 C-95.50674311 76.66575439 -95.50674311 76.66575439 -87.78515625 68.5078125 C-82.7369247 64.2438795 -77.75595805 62.77918937 -71.19921875 62.90234375 C-69.73295044 62.92349243 -69.73295044 62.92349243 -68.23706055 62.94506836 C-67.49883057 62.9631958 -66.76060059 62.98132324 -66 63 C-66.0314209 61.68563965 -66.0314209 61.68563965 -66.06347656 60.34472656 C-66.13242025 57.03455698 -66.18216564 53.7251707 -66.21972656 50.41455078 C-66.23961011 48.99287738 -66.26672727 47.57128317 -66.30175781 46.14990234 C-66.65795882 31.3047014 -63.62132258 19.62412818 -53.625 8.3125 C-52.75875 7.549375 -51.8925 6.78625 -51 6 C-50.44957031 5.50757813 -49.89914063 5.01515625 -49.33203125 4.5078125 C-36.31833827 -6.27879488 -14.90530724 -7.9062934 0 0 Z M-45.17578125 16.796875 C-56.84096311 30.88501755 -54 44.23031849 -54 63 C-32.22 63 -10.44 63 12 63 C13.22930065 36.2592911 13.22930065 36.2592911 1 15 C-12.51255409 4.12079799 -32.59300029 5.05634916 -45.17578125 16.796875 Z M-80.85073853 79.73377991 C-82.4935648 82.97325673 -82.38157349 85.63594234 -82.38818359 89.25952148 C-82.39344055 89.98359192 -82.39869751 90.70766235 -82.40411377 91.45367432 C-82.4172985 93.84303473 -82.40858057 96.23172676 -82.3984375 98.62109375 C-82.4004589 100.28491849 -82.4033709 101.94874237 -82.40713501 103.61256409 C-82.41155646 107.09864746 -82.40513398 110.5845001 -82.39111328 114.07055664 C-82.37403467 118.53396986 -82.38385509 122.99684136 -82.40183067 127.46023464 C-82.41268475 130.89610353 -82.40921451 134.33184457 -82.4014473 137.76771736 C-82.39944908 139.41311775 -82.40189125 141.05852982 -82.40888596 142.70391655 C-82.41652586 145.00661716 -82.40486103 147.30844796 -82.38818359 149.61108398 C-82.38579681 150.92028305 -82.38341003 152.22948212 -82.38095093 153.57835388 C-81.9707856 157.26239956 -81.29946557 159.11764722 -79 162 C-76.06923356 163.7981888 -73.86716709 164.2517809 -70.45252991 164.26069641 C-69.54552841 164.26778122 -68.63852692 164.27486603 -67.70404053 164.28216553 C-66.71639709 164.27968811 -65.72875366 164.27721069 -64.71118164 164.2746582 C-63.14227425 164.2823246 -63.14227425 164.2823246 -61.54167175 164.29014587 C-58.08110853 164.30405619 -54.62074413 164.30308403 -51.16015625 164.30078125 C-48.75646388 164.3046673 -46.35277221 164.30900178 -43.94908142 164.31376648 C-38.9094724 164.32123173 -33.86993343 164.32093511 -28.83032227 164.31567383 C-22.36935769 164.30987796 -15.90867967 164.32681181 -9.44776249 164.3500185 C-4.4832542 164.36474359 0.48118488 164.36562921 5.44571114 164.36250877 C7.82796356 164.36302257 10.21021981 164.36827123 12.5924511 164.37832069 C15.92241973 164.39064412 19.25182758 164.38391766 22.58178711 164.37231445 C24.06021591 164.38378006 24.06021591 164.38378006 25.56851196 164.39547729 C32.30142552 164.36648329 32.30142552 164.36648329 38 161 C40.57996732 157.54411635 40.26607571 153.9370016 40.29052734 149.74047852 C40.29724457 149.01640808 40.30396179 148.29233765 40.31088257 147.54632568 C40.32985221 145.15711573 40.33378602 142.76818678 40.3359375 140.37890625 C40.34236551 138.71508163 40.34909388 137.05125815 40.35610962 135.38743591 C40.36807932 131.90141173 40.3717907 128.41548664 40.37060547 124.92944336 C40.37040215 120.46595519 40.39771872 116.0031028 40.43214989 111.53976536 C40.45440254 108.10390818 40.45844354 104.6682045 40.45738602 101.23228264 C40.45974389 99.58686059 40.46857795 97.94143443 40.48405075 96.29608345 C40.50368117 93.99324278 40.49788585 91.69177959 40.48583984 89.38891602 C40.48868988 88.07971695 40.49153992 86.77051788 40.49447632 85.42164612 C39.91031598 81.37941018 38.94556591 79.79204639 36 77 C31.41423785 74.20307552 26.18570099 74.71169744 20.98071289 74.7253418 C19.97524918 74.72023087 18.96978546 74.71511993 17.93385315 74.70985413 C14.61339347 74.69596509 11.29314151 74.69691435 7.97265625 74.69921875 C5.66246972 74.69533157 3.35228389 74.69099686 1.042099 74.68623352 C-3.79902463 74.67877288 -8.64007533 74.67906159 -13.48120117 74.68432617 C-19.68309142 74.69012186 -25.88468313 74.67318641 -32.08652401 74.6499815 C-36.85720056 74.63524595 -41.62780517 74.63437221 -46.39850044 74.63749123 C-48.68502964 74.63697797 -50.97156287 74.63173943 -53.25806999 74.62167931 C-56.45601656 74.60933541 -59.65338103 74.61609459 -62.85131836 74.62768555 C-63.79436829 74.62004181 -64.73741821 74.61239807 -65.70904541 74.60452271 C-71.83141927 74.65354054 -76.20688411 75.38339688 -80.85073853 79.73377991 Z " fill="#000000" transform="translate(121,14)"/>
<path d="M0 0 C3.41147754 1.70573877 5.38347495 3.03500427 7.4375 6.25 C8.19884932 9.97215221 8.19570332 13.3716589 7 17 C6.33355469 17.68835938 5.66710937 18.37671875 4.98046875 19.0859375 C2.03555808 23.41908022 2.44099064 27.50073512 2.4375 32.625 C2.42856966 34.51312947 2.40698872 36.40125314 2.37109375 38.2890625 C2.3700061 39.53743896 2.3700061 39.53743896 2.36889648 40.81103516 C1.91405361 43.50999026 1.18254155 44.38830657 -1 46 C-6.1313895 46.64142369 -6.1313895 46.64142369 -8.66430664 44.77099609 C-10.38988692 42.48304886 -10.3686136 41.13572382 -10.37109375 38.2890625 C-10.39719727 36.91621094 -10.39719727 36.91621094 -10.42382812 35.515625 C-10.43290569 33.59636857 -10.43814572 31.67708995 -10.43945312 29.7578125 C-10.5547058 24.09850875 -10.89963416 21.2191023 -15 17 C-16.42652464 12.95428259 -16.24625684 9.72508959 -14.875 5.6875 C-11.08355857 0.25310062 -6.49456538 -1.14385692 0 0 Z " fill="#000000" transform="translate(104,111)"/>
</svg>
